<svg xmlns="http://www.w3.org/2000/svg" width="80" height="22" fill="none"><path fill="#ADADAD" d="M8.894 7.574c.539-.467 1.036-.934 1.574-1.358a55.755 55.755 0 0 0-1.16-.806c-.455.382-.91.806-1.367 1.23.456.17.787.51.953.934Z"/><path fill="#ADADAD" d="M7.572 9.742a1.804 1.804 0 1 0 .01-3.608 1.804 1.804 0 0 0-.01 3.608Zm1.594 8.246c-2.56 1.399-4.772 1.748-5.77.787-1.389-1.355-.13-4.896 2.907-8.48a1.75 1.75 0 0 1-1.085-.918C.792 14.36-1.204 19.387.748 21.267c1.606 1.573 5.468.524 9.72-2.274a26.054 26.054 0 0 1-1.302-1.005Z"/><path fill="#ADADAD" d="M12.086 6.044c.13-.48.476-.871.909-1.09C7.89.727 2.698-1.147.752.727-.85 2.296.189 6.001 3.088 10.098c.346-.436.692-.828 1.038-1.264-1.428-2.484-1.817-4.62-.822-5.623 1.428-1.351 5.062-.087 8.782 2.833Zm3.681 1.169c-.168.437-.547.787-.968.962.632.656 1.221 1.268 1.726 1.923.295-.393.59-.787.8-1.18-.463-.568-1.01-1.137-1.558-1.705Z"/><path fill="#ADADAD" d="M14.438 9.016a1.788 1.788 0 0 0 1.804-1.803 1.788 1.788 0 0 0-1.804-1.803 1.788 1.788 0 0 0-1.805 1.803c0 .968.797 1.803 1.805 1.803Z"/><path fill="#ADADAD" d="M19.375 3.236c1.394 1.353.13 4.89-2.92 8.47.48.131.872.48 1.09.917 4.4-4.977 6.404-10.042 4.444-11.92-1.612-1.528-5.49-.48-9.716 2.314.436.306.872.655 1.307 1.005 2.57-1.398 4.793-1.747 5.795-.786Zm-5.204 10.83a33.255 33.255 0 0 1-1.898 1.697c.413.305.784.566 1.197.827.577-.479 1.114-1.001 1.691-1.567-.454-.174-.784-.522-.99-.957Z"/><path fill="#ADADAD" d="M15.53 12.257a1.804 1.804 0 1 0-.01 3.609 1.804 1.804 0 0 0 .01-3.609Zm-7.59 1.568c-.63-.656-1.22-1.268-1.726-1.923-.295.393-.59.787-.8 1.18.505.568 1.01 1.137 1.558 1.705a1.65 1.65 0 0 1 .969-.962Z"/><path fill="#ADADAD" d="M19.663 11.902c-.345.434-.69.825-1.035 1.26 1.423 2.475 1.811 4.56.777 5.559-1.423 1.346-5.045.087-8.753-2.78-.13.478-.475.869-.906 1.086 5.131 4.213 10.305 6.124 12.246 4.256 1.595-1.607.56-5.342-2.329-9.381Zm-9.552 2.894a1.804 1.804 0 1 0-3.608-.008 1.804 1.804 0 0 0 3.608.008Z"/><path fill="#ADADAD" stroke="#ADADAD" stroke-width=".615" d="M32.668 15.869c1.479 0 2.456-.518 3.343-1.334a.485.485 0 0 0 .167-.363.508.508 0 0 0-.488-.492.466.466 0 0 0-.322.143c-.771.712-1.556 1.1-2.674 1.1-1.98 0-3.485-1.645-3.485-3.743 0-2.11 1.491-3.743 3.485-3.743 1.105 0 1.89.415 2.584 1.036a.605.605 0 0 0 .335.117c.27 0 .514-.233.514-.505a.562.562 0 0 0-.206-.415c-.836-.699-1.761-1.178-3.215-1.178-2.649 0-4.552 2.124-4.552 4.688 0 2.63 1.916 4.689 4.514 4.689Zm9.297 0c-2.739 0-4.578-2.163-4.578-4.663v-.026c0-2.5 1.865-4.688 4.604-4.688s4.578 2.163 4.578 4.662v.026c0 2.5-1.865 4.689-4.604 4.689Zm.026-.946c2.057 0 3.523-1.657 3.523-3.717v-.026c0-2.059-1.492-3.743-3.549-3.743s-3.523 1.658-3.523 3.717v.026c0 2.06 1.491 3.743 3.549 3.743Zm9.747.92c1.788 0 3.073-1.01 3.073-2.565v-.025c0-1.386-.925-2.124-2.931-2.565-1.98-.427-2.444-.906-2.444-1.761V8.9c0-.816.746-1.464 1.916-1.464.836 0 1.57.233 2.328.79a.47.47 0 0 0 .295.091.49.49 0 0 0 .49-.492.527.527 0 0 0-.22-.415c-.822-.595-1.684-.893-2.867-.893-1.71 0-2.958 1.049-2.958 2.473v.026c0 1.49.952 2.163 3.022 2.617 1.89.401 2.34.88 2.34 1.722v.026c0 .894-.797 1.541-2.005 1.541-1.145 0-1.994-.35-2.842-1.075a.448.448 0 0 0-.309-.116c-.27 0-.488.22-.488.505 0 .168.077.31.192.389 1.003.803 2.096 1.217 3.408 1.217Zm5.144-.57a.496.496 0 1 0 .99 0v-6.76l2.867 4.247c.116.169.258.26.438.26s.308-.091.424-.26l2.88-4.26v6.76c0 .272.232.518.515.518.27 0 .502-.233.502-.518V7.113a.513.513 0 0 0-.502-.505h-.116a.545.545 0 0 0-.475.272l-3.215 4.87-3.215-4.87a.556.556 0 0 0-.476-.272h-.116a.513.513 0 0 0-.501.505v8.16Zm11.251-.013c0 .285.232.518.502.518a.517.517 0 0 0 .514-.518V7.1a.517.517 0 0 0-.514-.518.516.516 0 0 0-.502.519v8.16Zm7.767.609c1.48 0 2.456-.518 3.344-1.334a.485.485 0 0 0 .167-.363.508.508 0 0 0-.489-.492.465.465 0 0 0-.321.143c-.772.712-1.556 1.1-2.675 1.1-1.98 0-3.484-1.645-3.484-3.743v-.026c0-2.085 1.49-3.717 3.484-3.717 1.106 0 1.89.415 2.585 1.036a.605.605 0 0 0 .334.117c.27 0 .515-.233.515-.505a.562.562 0 0 0-.206-.415c-.836-.699-1.762-1.178-3.215-1.178-2.65 0-4.552 2.124-4.552 4.688v.026c0 2.604 1.916 4.663 4.513 4.663Z"/></svg>