<svg xmlns="http://www.w3.org/2000/svg" width="82" height="22" fill="none"><mask id="a" width="82" height="22" x="0" y="0" maskUnits="userSpaceOnUse" style="mask-type:luminance"><path fill="#fff" d="M81.974 0H0v22h81.974V0Z"/></mask><g mask="url(#a)"><path fill="#ADADAD" d="M11.272 20.582c-1.233.215-2.488.28-3.786.451L3.526 9.518v12.01c-1.233.128-2.358.3-3.526.472V0h3.289l4.5 12.483V0h3.483v20.582Zm6.815-12.525c1.341 0 3.396-.065 4.63-.065v3.438c-1.537 0-3.332 0-4.63.064v5.113c2.033-.128 4.067-.3 6.122-.365v3.308l-9.584.753V0h9.584v3.438h-6.122v4.619Zm18.995-4.62H33.49V19.25c-1.168 0-2.336 0-3.461.043V3.438h-3.591V0h10.644v3.438Zm5.625 4.383h4.738v3.438h-4.738v7.799H39.31V0h9.67v3.438h-6.273V7.82Zm11.899 8.229c1.968.043 3.959.193 5.884.3v3.395c-3.093-.193-6.187-.386-9.346-.451V0h3.462v16.049Zm8.805 3.931c1.103.065 2.272.13 3.397.258V0H63.41v19.98ZM81.974 0l-4.392 10.463L81.974 22c-1.299-.172-2.597-.408-3.895-.623l-2.488-6.36-2.53 5.845c-1.256-.216-2.467-.28-3.722-.452l4.457-10.076L69.772 0h3.72l2.272 5.78L78.188 0h3.785Z"/></g></svg>