<svg width="40" height="40" viewBox="0 0 40 40" fill="none" xmlns="http://www.w3.org/2000/svg">
<path d="M18.2222 0C14.9629 1.44444 4.88889 9.06541 4.88889 20.1111C4.88889 31.1567 13.0278 38.3333 17.5556 39.9999C10.8055 39.5 0 31.0457 0 20C0 8.95432 8.25 2.6389 18.2222 0Z" fill="#308C9E"/>
<path d="M38.8906 4.13683C32.1946 4.20732 22.3664 4.20991 16.8435 13.7758C11.3207 23.3416 16.3891 35.596 18.6668 37.9017C16.9897 36.7038 12.3407 31.6083 10.6357 25.3664C9.3896 20.8043 10.2019 15.5017 12.6652 11.2351C14.1366 8.68653 15.8743 6.61919 17.8303 5.16253C23.0091 1.30595 31.389 1.15177 38.8906 4.13683Z" fill="#F8C400"/>
<path d="M31.3334 11.6667C30.2473 12.6008 24.6228 17.5804 24.0445 23.1112C23.8868 24.6189 24.1991 26.836 24.7963 27.8704C25.5928 29.25 26.9838 30.4221 29.5556 31.1112C33.2263 32.0947 37.5508 31.0477 40 30.3778C38.4 31.1445 33.7213 33.2115 29.2223 33.5556C24.9583 33.8817 20.5055 32.6076 19.3918 28.4511C18.3229 24.4618 21.1483 19.3823 25.6007 15.526C27.3052 14.0497 29.2644 12.5578 31.3334 11.6667Z" fill="#284998"/>
</svg>
