<svg xmlns="http://www.w3.org/2000/svg" viewBox="0 0 48 48" width="48" height="48"><path fill="#25D366" d="M24 4C12.954 4 4 12.954 4 24c0 3.53.93 6.84 2.54 9.71L4 44l10.59-2.77A19.9 19.9 0 0024 44c11.046 0 20-8.954 20-20S35.046 4 24 4zm0 36a15.92 15.92 0 01-8.19-2.26l-.59-.35-6.09 1.6 1.62-5.93-.38-.61A15.93 15.93 0 018 24c0-8.837 7.163-16 16-16s16 7.163 16 16-7.163 16-16 16zm8.76-11.97c-.48-.24-2.84-1.4-3.28-1.56-.44-.16-.76-.24-1.08.24s-1.24 1.56-1.52 1.88-.56.36-1.04.12-2.03-.75-3.87-2.38c-1.43-1.27-2.39-2.84-2.67-3.32s-.03-.74.21-.98c.22-.21.48-.56.72-.84.24-.28.32-.48.48-.8s.08-.6-.04-.84c-.12-.24-1.08-2.6-1.48-3.56-.39-.93-.79-.8-1.08-.82h-.92c-.28 0-.76.12-1.16.56s-1.52 1.48-1.52 3.61 1.56 4.19 1.78 4.48c.22.28 3.07 4.69 7.44 6.58 1.04.45 1.85.72 2.48.92.99.31 1.89.27 2.6.16.79-.12 2.84-1.16 3.24-2.28s.4-2.08.28-2.28c-.12-.2-.44-.32-.92-.56z"/></svg>
