<svg xmlns="http://www.w3.org/2000/svg" width="24" height="24" fill="none"><path fill="#fff" fill-rule="evenodd" d="M5.5 5.5h13v13h-13v-13Z" clip-rule="evenodd"/><path fill="#fff" fill-rule="evenodd" d="M2 5.25A3.25 3.25 0 0 1 5.25 2H9v1.5H5.25A1.75 1.75 0 0 0 3.5 5.25V9H2V5.25Zm0 13.5A3.25 3.25 0 0 0 5.25 22H9v-1.5H5.25a1.75 1.75 0 0 1-1.75-1.75V15H2v3.75ZM20.5 9V5.25a1.75 1.75 0 0 0-1.75-1.75H15V2h3.75A3.25 3.25 0 0 1 22 5.25V9h-1.5Zm0 6v3.75a1.75 1.75 0 0 1-1.75 1.75H15V22h3.75A3.25 3.25 0 0 0 22 18.75V15h-1.5Z" clip-rule="evenodd"/></svg>