<svg width="60" height="60" viewBox="0 0 60 60" fill="none" xmlns="http://www.w3.org/2000/svg">
<path d="M30 5C25 5 20 8 18 12C16 8 12 5 8 7C4 9 3 15 6 19C8 22 12 24 15 25C13 28 12 32 14 36C16 40 20 42 24 41C22 45 23 50 27 53C31 56 36 55 39 52C42 55 47 56 50 53C53 50 53 45 51 42C55 43 59 40 60 36C61 32 59 28 56 26C59 24 61 20 60 16C59 12 55 9 51 10C52 6 49 2 45 1C41 0 37 2 35 5C33 3 31 4 30 5Z" fill="#E8942A"/>
<path d="M25 20C27 18 30 16 33 17C36 18 37 22 35 25C33 28 29 30 26 29C23 28 22 24 25 20Z" fill="white" fill-opacity="0.3"/>
</svg>
