<svg width="186" height="42" viewBox="0 0 186 42" fill="none" xmlns="http://www.w3.org/2000/svg">
<path d="M40.9141 7.72806V33H37.1011V7.72806H40.9141ZM48.123 21.7461V33H44.4334V14.046H47.9749V17.131H48.2094C48.6454 16.1274 49.3282 15.3212 50.2578 14.7124C51.1956 14.1036 52.3761 13.7993 53.7993 13.7993C55.0909 13.7993 56.2221 14.0707 57.1928 14.6137C58.1635 15.1484 58.9162 15.9464 59.451 17.0076C59.9857 18.0688 60.2531 19.381 60.2531 20.944V33H56.5635V21.3882C56.5635 20.0144 56.2056 18.9408 55.4899 18.1675C54.7742 17.386 53.7911 16.9953 52.5407 16.9953C51.6851 16.9953 50.9242 17.1804 50.2578 17.5506C49.5997 17.9207 49.0773 18.4637 48.6907 19.1794C48.3122 19.8869 48.123 20.7425 48.123 21.7461ZM72.3115 14.046V17.0076H61.9584V14.046H72.3115ZM64.7349 9.505H68.4245V27.4347C68.4245 28.1505 68.5314 28.6893 68.7453 29.0513C68.9592 29.405 69.2348 29.6477 69.5721 29.7793C69.9176 29.9027 70.2919 29.9644 70.695 29.9644C70.9912 29.9644 71.2503 29.9438 71.4724 29.9027C71.6945 29.8616 71.8673 29.8287 71.9907 29.804L72.657 32.8519C72.4432 32.9342 72.1388 33.0165 71.7439 33.0987C71.349 33.1892 70.8554 33.2386 70.2631 33.2468C69.2924 33.2632 68.3875 33.0905 67.5484 32.7285C66.7093 32.3666 66.0306 31.8072 65.5123 31.0503C64.994 30.2935 64.7349 29.3433 64.7349 28.1998V9.505ZM82.6208 33.3825C80.7534 33.3825 79.1451 32.9835 77.796 32.1856C76.455 31.3794 75.4185 30.2482 74.6863 28.7921C73.9624 27.3278 73.6004 25.6126 73.6004 23.6464C73.6004 21.705 73.9624 19.9938 74.6863 18.5131C75.4185 17.0323 76.4386 15.8765 77.7466 15.0456C79.0628 14.2147 80.6012 13.7993 82.3617 13.7993C83.4311 13.7993 84.4677 13.9761 85.4713 14.3299C86.475 14.6836 87.3758 15.2389 88.1737 15.9957C88.9717 16.7526 89.601 17.7357 90.0617 18.945C90.5224 20.146 90.7528 21.6062 90.7528 23.3256V24.6336H75.6858V21.8695H87.1372C87.1372 20.8988 86.9398 20.0391 86.5449 19.2905C86.15 18.5336 85.5947 17.9372 84.879 17.5012C84.1715 17.0652 83.3406 16.8472 82.3864 16.8472C81.3498 16.8472 80.4449 17.1022 79.6716 17.6123C78.9065 18.1141 78.3142 18.7722 77.8947 19.5866C77.4833 20.3928 77.2777 21.269 77.2777 22.215V24.3745C77.2777 25.6414 77.4998 26.719 77.944 27.6075C78.3965 28.496 79.0258 29.1747 79.832 29.6436C80.6382 30.1043 81.5802 30.3346 82.6578 30.3346C83.3571 30.3346 83.9947 30.2359 84.5705 30.0384C85.1464 29.8328 85.6441 29.5284 86.0636 29.1253C86.4832 28.7222 86.804 28.2245 87.0261 27.6322L90.5183 28.2615C90.2386 29.2898 89.7368 30.1906 89.0128 30.9639C88.2971 31.729 87.3963 32.3254 86.3104 32.7532C85.2328 33.1728 84.0029 33.3825 82.6208 33.3825ZM93.109 33V14.046H96.6753V17.057H96.8727C97.2182 16.0369 97.827 15.2348 98.699 14.6507C99.5792 14.0584 100.575 13.7622 101.685 13.7622C101.916 13.7622 102.187 13.7705 102.5 13.7869C102.82 13.8034 103.071 13.8239 103.252 13.8486V17.3778C103.104 17.3367 102.841 17.2914 102.463 17.2421C102.084 17.1845 101.706 17.1557 101.327 17.1557C100.455 17.1557 99.6779 17.3408 98.9951 17.711C98.3206 18.0729 97.7858 18.5789 97.391 19.2288C96.9961 19.8704 96.7986 20.6026 96.7986 21.4253V33H93.109ZM110.054 33.4196C108.853 33.4196 107.767 33.1974 106.796 32.7532C105.826 32.3007 105.056 31.6467 104.489 30.7912C103.929 29.9356 103.65 28.8867 103.65 27.6445C103.65 26.5751 103.855 25.6948 104.267 25.0038C104.678 24.3128 105.233 23.7657 105.933 23.3626C106.632 22.9595 107.413 22.6551 108.277 22.4495C109.141 22.2438 110.021 22.0875 110.918 21.9805C112.053 21.8489 112.974 21.742 113.682 21.6597C114.389 21.5692 114.904 21.4253 115.224 21.2278C115.545 21.0304 115.706 20.7095 115.706 20.2653V20.1789C115.706 19.1013 115.401 18.2663 114.793 17.674C114.192 17.0816 113.295 16.7855 112.102 16.7855C110.86 16.7855 109.881 17.0611 109.166 17.6123C108.458 18.1552 107.969 18.7599 107.697 19.4262L104.23 18.6365C104.641 17.4847 105.242 16.5551 106.031 15.8477C106.829 15.132 107.747 14.6137 108.783 14.2928C109.82 13.9638 110.91 13.7993 112.053 13.7993C112.81 13.7993 113.612 13.8897 114.459 14.0707C115.315 14.2435 116.113 14.5643 116.853 15.0332C117.602 15.5021 118.215 16.1726 118.692 17.0446C119.169 17.9084 119.408 19.0313 119.408 20.4134V33H115.804V30.4086H115.656C115.418 30.8858 115.06 31.3547 114.583 31.8154C114.106 32.2761 113.493 32.6586 112.744 32.963C111.996 33.2674 111.099 33.4196 110.054 33.4196ZM110.856 30.458C111.876 30.458 112.748 30.2564 113.472 29.8533C114.204 29.4502 114.76 28.9237 115.138 28.2739C115.525 27.6157 115.718 26.9124 115.718 26.1637V23.7205C115.586 23.8521 115.331 23.9755 114.953 24.0907C114.583 24.1976 114.159 24.2922 113.682 24.3745C113.205 24.4485 112.74 24.5184 112.288 24.5842C111.835 24.6418 111.457 24.6912 111.152 24.7323C110.437 24.8228 109.783 24.975 109.19 25.1889C108.606 25.4028 108.137 25.7113 107.784 26.1144C107.438 26.5093 107.265 27.0358 107.265 27.6939C107.265 28.607 107.603 29.2981 108.277 29.767C108.952 30.2277 109.811 30.458 110.856 30.458ZM130.568 33.3825C128.734 33.3825 127.154 32.9671 125.83 32.1362C124.514 31.2971 123.502 30.1413 122.794 28.6687C122.087 27.1962 121.733 25.5097 121.733 23.6094C121.733 21.6844 122.095 19.9856 122.819 18.5131C123.543 17.0323 124.563 15.8765 125.879 15.0456C127.196 14.2147 128.746 13.7993 130.531 13.7993C131.971 13.7993 133.254 14.0666 134.381 14.6013C135.508 15.1278 136.417 15.8682 137.108 16.8225C137.808 17.7768 138.223 18.8915 138.355 20.1666H134.764C134.566 19.2781 134.114 18.5131 133.407 17.8714C132.707 17.2297 131.769 16.9089 130.593 16.9089C129.565 16.9089 128.664 17.1804 127.891 17.7233C127.126 18.258 126.529 19.0231 126.101 20.0185C125.674 21.0057 125.46 22.1739 125.46 23.523C125.46 24.9051 125.669 26.0979 126.089 27.1016C126.509 28.1052 127.101 28.8826 127.866 29.4338C128.639 29.985 129.548 30.2606 130.593 30.2606C131.292 30.2606 131.926 30.1331 132.493 29.878C133.069 29.6148 133.551 29.2405 133.937 28.7551C134.332 28.2697 134.608 27.6857 134.764 27.0029H138.355C138.223 28.2286 137.824 29.3227 137.158 30.2852C136.492 31.2477 135.599 32.0046 134.48 32.5558C133.37 33.1069 132.066 33.3825 130.568 33.3825ZM149.411 14.046V17.0076H139.058V14.046H149.411ZM141.834 9.505H145.524V27.4347C145.524 28.1505 145.631 28.6893 145.844 29.0513C146.058 29.405 146.334 29.6477 146.671 29.7793C147.017 29.9027 147.391 29.9644 147.794 29.9644C148.09 29.9644 148.349 29.9438 148.572 29.9027C148.794 29.8616 148.966 29.8287 149.09 29.804L149.756 32.8519C149.542 32.9342 149.238 33.0165 148.843 33.0987C148.448 33.1892 147.955 33.2386 147.362 33.2468C146.392 33.2632 145.487 33.0905 144.648 32.7285C143.808 32.3666 143.13 31.8072 142.611 31.0503C142.093 30.2935 141.834 29.3433 141.834 28.1998V9.505Z" fill="black"/>
<path d="M158.205 33.0002H154.158L163.252 7.72825H167.657L176.752 33.0002H172.704L165.56 12.3187H165.362L158.205 33.0002ZM158.884 23.1037H172.013V26.312H158.884V23.1037ZM182.477 7.72825V33.0002H178.664V7.72825H182.477Z" fill="black"/>
<g clip-path="url(#clip0_2_15195)">
<path d="M13.4428 15.5879H1.05679C0.858637 15.5879 0.697998 15.7485 0.697998 15.9467V17.4922C0.697998 17.6904 0.858637 17.851 1.05679 17.851H13.4428C13.6409 17.851 13.8016 17.6904 13.8016 17.4922V15.9467C13.8016 15.7485 13.6409 15.5879 13.4428 15.5879Z" fill="black"/>
<path d="M12.7022 18.6642H0.358796C0.160639 18.6642 0 18.8248 0 19.023V20.5686C0 20.7667 0.160639 20.9274 0.358796 20.9274H12.7022C12.9003 20.9274 13.061 20.7667 13.061 20.5686V19.023C13.061 18.8248 12.9003 18.6642 12.7022 18.6642Z" fill="black"/>
<path d="M13.4708 30.7669H1.08484C0.886682 30.7669 0.726044 30.9275 0.726044 31.1257V32.6713C0.726044 32.8694 0.886682 33.0301 1.08484 33.0301H13.4708C13.669 33.0301 13.8296 32.8694 13.8296 32.6713V31.1257C13.8296 30.9275 13.669 30.7669 13.4708 30.7669Z" fill="black"/>
<path d="M12.7022 33.816H0.358796C0.160639 33.816 0 33.9766 0 34.1748V35.7203C0 35.9185 0.160639 36.0791 0.358796 36.0791H12.7022C12.9003 36.0791 13.061 35.9185 13.061 35.7203V34.1748C13.061 33.9766 12.9003 33.816 12.7022 33.816Z" fill="black"/>
<path d="M11.6808 21.6618H3.20685C3.00869 21.6618 2.84805 21.8225 2.84805 22.0206V23.5662C2.84805 23.7644 3.00869 23.925 3.20685 23.925H11.6808C11.8789 23.925 12.0396 23.7644 12.0396 23.5662V22.0206C12.0396 21.8225 11.8789 21.6618 11.6808 21.6618Z" fill="black"/>
<path d="M10.9547 24.6992H2.48084C2.28268 24.6992 2.12204 24.8598 2.12204 25.058V26.6036C2.12204 26.8017 2.28268 26.9624 2.48084 26.9624H10.9547C11.1529 26.9624 11.3135 26.8017 11.3135 26.6036V25.058C11.3135 24.8598 11.1529 24.6992 10.9547 24.6992Z" fill="black"/>
<path d="M27.2433 6.3815H14.8266C14.6284 6.3815 14.4678 6.54214 14.4678 6.7403V8.28588C14.4678 8.48404 14.6284 8.64468 14.8266 8.64468H27.2433C27.4415 8.64468 27.6021 8.48404 27.6021 8.28588V6.7403C27.6021 6.54214 27.4415 6.3815 27.2433 6.3815Z" fill="black"/>
<path d="M27.2424 21.6073H14.8422C14.644 21.6073 14.4834 21.7679 14.4834 21.9661V23.5117C14.4834 23.7098 14.644 23.8705 14.8422 23.8705H27.2424C27.4405 23.8705 27.6012 23.7098 27.6012 23.5117V21.9661C27.6012 21.7679 27.4405 21.6073 27.2424 21.6073Z" fill="black"/>
<path d="M26.5021 9.45782H14.1162C13.918 9.45782 13.7574 9.61846 13.7574 9.81662V11.3622C13.7574 11.5604 13.918 11.721 14.1162 11.721H26.5021C26.7003 11.721 26.8609 11.5604 26.8609 11.3622V9.81662C26.8609 9.61846 26.7003 9.45782 26.5021 9.45782Z" fill="black"/>
<path d="M14.5404 12.5224H1.76413C1.5662 12.5224 1.40533 12.6833 1.40533 12.8812V14.426C1.40533 14.624 1.5662 14.7848 1.76413 14.7848H25.7656C25.9636 14.7848 26.1244 14.624 26.1244 14.426V12.8812C26.1244 12.6833 25.9636 12.5224 25.7656 12.5224H14.5404Z" fill="black"/>
<path d="M26.5364 24.6369H14.1504C13.9523 24.6369 13.7916 24.7975 13.7916 24.9957V26.5413C13.7916 26.7394 13.9523 26.9 14.1504 26.9H26.5364C26.7345 26.9 26.8952 26.7394 26.8952 26.5413V24.9957C26.8952 24.7975 26.7345 24.6369 26.5364 24.6369Z" fill="black"/>
<path d="M14.5387 27.7358H1.77973C1.5818 27.7358 1.42093 27.8966 1.42093 28.0946V29.6394C1.42093 29.8373 1.5818 29.9982 1.77973 29.9982H25.7639C25.9618 29.9982 26.1227 29.8373 26.1227 29.6394V28.0946C26.1227 27.8966 25.9618 27.7358 25.7639 27.7358H14.5387Z" fill="black"/>
<path d="M24.7433 15.5333H16.2693C16.0712 15.5333 15.9106 15.694 15.9106 15.8921V17.4377C15.9106 17.6359 16.0712 17.7965 16.2693 17.7965H24.7433C24.9414 17.7965 25.1021 17.6359 25.1021 17.4377V15.8921C25.1021 15.694 24.9414 15.5333 24.7433 15.5333Z" fill="black"/>
<path d="M24.0172 18.5699H15.5433C15.3451 18.5699 15.1845 18.7306 15.1845 18.9287V20.4743C15.1845 20.6725 15.3451 20.8331 15.5433 20.8331H24.0172C24.2154 20.8331 24.376 20.6725 24.376 20.4743V18.9287C24.376 18.7306 24.2154 18.5699 24.0172 18.5699Z" fill="black"/>
</g>
<defs>
<clipPath id="clip0_2_15195">
<rect width="27.5989" height="29.6973" fill="white" transform="translate(0 6.38185)"/>
</clipPath>
</defs>
</svg>
