<svg xmlns="http://www.w3.org/2000/svg" width="73" height="22" fill="none"><path fill="#B3B3B3" d="M21.999 9.849h-6.702l5.804-3.352-1.15-1.994-5.805 3.351 3.35-5.804L15.502.898l-3.35 5.803V0H9.847v6.702L6.498.898 4.501 2.05l3.35 5.803-5.802-3.35L.898 6.497 6.702 9.85H0v2.303h6.7l-5.801 3.35 1.15 1.995 5.805-3.351-3.35 5.804 1.993 1.151L9.848 15.3V22h2.303v-6.845l3.412 5.91 1.87-1.079-3.413-5.912 5.928 3.423 1.152-1.994-5.803-3.352h6.701V9.85H22Zm-11 4.282a3.13 3.13 0 0 1-2.893-4.33 3.132 3.132 0 0 1 5.107-1.017A3.133 3.133 0 0 1 11 14.131Zm16.937 4.916V2.953h2.952v16.094h-2.953ZM56.255 8.11h2.819v1.335c.6-1.067 1.999-1.646 3.198-1.646 1.488 0 2.686.646 3.241 1.823.865-1.335 2.02-1.823 3.464-1.823 2.02 0 3.95 1.223 3.95 4.157v7.091h-2.862v-6.49c0-1.18-.578-2.069-1.933-2.069-1.266 0-2.02.98-2.02 2.158v6.402h-2.93v-6.492c0-1.178-.6-2.068-1.932-2.068-1.288 0-2.043.957-2.043 2.158v6.402h-2.952V8.11ZM37.56 19.364c-3.326 0-5.735-2.47-5.735-5.785 0-3.264 2.401-5.79 5.735-5.79 3.35 0 5.736 2.55 5.736 5.79 0 3.292-2.41 5.785-5.736 5.785Zm0-8.9a3.115 3.115 0 0 0 0 6.23 3.115 3.115 0 0 0 0-6.23Zm12.042 8.9c-3.326 0-5.735-2.47-5.735-5.785 0-3.264 2.401-5.79 5.735-5.79 3.35 0 5.736 2.55 5.736 5.79 0 3.292-2.412 5.785-5.736 5.785Zm0-8.937a3.151 3.151 0 0 0 0 6.301 3.152 3.152 0 0 0 3.147-3.15 3.154 3.154 0 0 0-3.147-3.15Z"/></svg>