<svg xmlns="http://www.w3.org/2000/svg" width="24" height="24" fill="none"><path stroke="#E45862" stroke-linecap="round" stroke-linejoin="round" stroke-width="1.9" d="m11.872 18.8-3.928 2.356a1.979 1.979 0 0 1-2.039 0l-2.969-1.781a1.98 1.98 0 0 1-.96-1.693v-3.206a1.979 1.979 0 0 1 .96-1.692l3.988-2.395m4.948 8.412v-5.443m0 5.443 3.929 2.355a1.979 1.979 0 0 0 2.039 0l2.968-1.781a1.98 1.98 0 0 0 .96-1.693v-3.206a1.979 1.979 0 0 0-.96-1.692l-3.988-2.395m-4.948 2.969-4.948-2.969m4.948 2.969-4.948 2.969m4.948-2.97 4.948-2.968m-4.948 2.969 4.948 2.969m-4.948-2.97V7.916M6.924 10.39V6.065a1.98 1.98 0 0 1 .96-1.693l2.97-1.78a1.98 1.98 0 0 1 2.038 0l2.968 1.78a1.978 1.978 0 0 1 .96 1.693v4.324m-9.896 5.938-4.69-2.82m4.69 2.82v5.116m9.896-5.116 4.69-2.82m-4.69 2.82v5.116M11.872 7.915l-4.69-2.82m4.69 2.82 4.691-2.82"/></svg>