<svg xmlns="http://www.w3.org/2000/svg" width="32" height="32" viewBox="0 0 32 32">
<rect width="32" height="32" rx="7" fill="#0d0e11"/>
<g transform="translate(6 6) scale(0.833333)">
<path d="M13.2152 19.2666C13.2362 17.0636 12.6782 15.2726 11.9672 15.2656C11.2572 15.2586 10.6642 17.0386 10.6422 19.2416C10.6212 21.4446 11.1792 23.2356 11.8902 23.2426C12.6002 23.2496 13.1932 21.4696 13.2152 19.2666Z" fill="#fff"/>
<path d="M13.2147 19.267C13.2357 17.064 12.6777 15.273 11.9667 15.266C11.2567 15.259 10.6637 17.039 10.6417 19.242C10.6207 21.445 11.1787 23.236 11.8897 23.243C12.5997 23.25 13.1927 21.47 13.2147 19.267ZM9.09468 18.767C10.3037 16.925 10.8017 15.117 10.2087 14.727C9.61468 14.337 8.15268 15.513 6.94368 17.354C5.73368 19.196 5.23568 21.004 5.82968 21.394C6.42368 21.784 7.88468 20.608 9.09468 18.767Z" fill="#fff"/>
<path d="M9.09529 18.7658C10.3043 16.9238 10.8023 15.1158 10.2093 14.7258C9.61529 14.3358 8.15329 15.5118 6.94429 17.3528C5.73429 19.1948 5.23629 21.0028 5.83029 21.3928C6.42429 21.7828 7.88529 20.6068 9.09529 18.7658ZM5.89429 16.1238C7.90729 15.2278 9.30429 13.9758 9.01629 13.3268C8.72729 12.6778 6.86129 12.8768 4.84829 13.7728C2.83629 14.6678 1.43829 15.9198 1.72729 16.5688C2.01529 17.2188 3.88129 17.0188 5.89429 16.1238Z" fill="#fff"/>
<path d="M5.89372 16.1254C7.90672 15.2294 9.30372 13.9774 9.01572 13.3284C8.72672 12.6794 6.86072 12.8784 4.84772 13.7744C2.83572 14.6694 1.43772 15.9214 1.72672 16.5704C2.01472 17.2204 3.88072 17.0204 5.89372 16.1254ZM8.77372 11.5084C8.88172 10.8064 7.20372 9.96536 5.02772 9.63036C2.84972 9.29436 0.997723 9.59236 0.888723 10.2944C0.780723 10.9964 2.45872 11.8374 4.63572 12.1724C6.81272 12.5074 8.66572 12.2104 8.77372 11.5084Z" fill="#fff"/>
<path d="M8.77372 11.5099C8.88172 10.8079 7.20372 9.96689 5.02772 9.63189C2.84972 9.29589 0.997723 9.59389 0.888723 10.2959C0.780723 10.9979 2.45872 11.8389 4.63572 12.1739C6.81272 12.5089 8.66572 12.2119 8.77372 11.5099ZM9.55572 9.83689C10.0257 9.30489 9.06972 7.68989 7.41872 6.23189C5.76872 4.77189 4.04872 4.02189 3.57872 4.55389C3.10772 5.08589 4.06472 6.70089 5.71472 8.15889C7.36472 9.61889 9.08572 10.3689 9.55572 9.83689Z" fill="#fff"/>
<path d="M9.55602 9.8342C10.026 9.3022 9.07002 7.68719 7.41902 6.22919C5.76902 4.76919 4.04902 4.01919 3.57902 4.55119C3.10802 5.08319 4.06502 6.69819 5.71502 8.15619C7.36502 9.61619 9.08602 10.3662 9.55602 9.8342ZM11.113 8.85619C11.796 8.6632 11.864 6.78819 11.264 4.6682C10.664 2.5482 9.62402 0.987195 8.94102 1.18019C8.25702 1.37419 8.18902 3.24919 8.78902 5.36819C9.38902 7.48819 10.429 9.05019 11.113 8.85619Z" fill="#fff"/>
<path d="M11.1129 8.85619C11.7959 8.6632 11.8639 6.78819 11.2639 4.6682C10.6639 2.5482 9.62391 0.987195 8.94091 1.18019C8.25691 1.37419 8.18891 3.24919 8.78891 5.36819C9.38891 7.48819 10.4289 9.05019 11.1129 8.85619ZM15.3399 5.43419C15.9819 3.32719 15.9499 1.45119 15.2709 1.24419C14.5909 1.03719 13.5209 2.57819 12.8789 4.68519C12.2369 6.79319 12.2689 8.6692 12.9479 8.8752C13.6279 9.0832 14.6979 7.54119 15.3399 5.43419Z" fill="#fff"/>
<path d="M15.3396 5.4352C15.9816 3.3282 15.9496 1.4522 15.2706 1.2452C14.5906 1.0382 13.5206 2.5792 12.8786 4.6862C12.2366 6.7942 12.2686 8.6702 12.9476 8.8762C13.6276 9.0842 14.6976 7.5422 15.3396 5.4352ZM18.3596 8.2832C20.0396 6.8572 21.0276 5.2622 20.5676 4.7202C20.1076 4.1792 18.3736 4.8962 16.6946 6.3222C15.0146 7.7492 14.0276 9.3442 14.4876 9.8852C14.9476 10.4272 16.6806 9.7092 18.3596 8.2832Z" fill="#fff"/>
<path d="M18.3599 8.28244C20.0399 6.85644 21.0279 5.26144 20.5679 4.71944C20.1079 4.17844 18.3739 4.89544 16.6949 6.32144C15.0149 7.74844 14.0279 9.34344 14.4879 9.88444C14.9479 10.4264 16.6809 9.70844 18.3599 8.28244ZM19.3599 12.3124C21.5429 12.0204 23.2369 11.2124 23.1419 10.5084C23.0479 9.80444 21.2019 9.47044 19.0179 9.76244C16.8349 10.0544 15.1409 10.8624 15.2349 11.5664C15.3289 12.2704 17.1749 12.6044 19.3589 12.3124H19.3599Z" fill="#fff"/>
<path d="M19.3595 12.3119C21.5425 12.0199 23.2365 11.2119 23.1415 10.5079C23.0475 9.80391 21.2015 9.46991 19.0175 9.76191C16.8345 10.0539 15.1405 10.8619 15.2345 11.5659C15.3285 12.2699 17.1745 12.6039 19.3585 12.3119H19.3595ZM22.1755 16.7709C22.4775 16.1269 21.1045 14.8479 19.1095 13.9129C17.1145 12.9779 15.2535 12.7419 14.9515 13.3849C14.6505 14.0289 16.0235 15.3079 18.0175 16.2429C20.0125 17.1779 21.8745 17.4139 22.1755 16.7709Z" fill="#fff"/>
<path d="M22.1761 16.7716C22.4781 16.1276 21.1051 14.8486 19.1101 13.9136C17.1151 12.9786 15.2541 12.7426 14.9521 13.3856C14.6511 14.0296 16.0241 15.3086 18.0181 16.2436C20.0131 17.1786 21.8751 17.4146 22.1761 16.7716ZM17.9801 21.5176C18.5821 21.1396 18.1191 19.3216 16.9461 17.4566C15.7741 15.5916 14.3361 14.3866 13.7341 14.7646C13.1331 15.1426 13.5951 16.9606 14.7681 18.8256C15.9411 20.6906 17.3781 21.8956 17.9801 21.5176Z" fill="#fff"/>
<path d="M17.9801 21.5177C18.5821 21.1397 18.1191 19.3217 16.9461 17.4567C15.7741 15.5917 14.3361 14.3867 13.7341 14.7647C13.1331 15.1427 13.5951 16.9607 14.7681 18.8257C15.9411 20.6907 17.3781 21.8957 17.9801 21.5177Z" fill="#fff"/>
</g>
</svg>
