<svg version="1.1" id="Layer_1" xmlns:x="ns_extend;" xmlns:i="ns_ai;" xmlns:graph="ns_graphs;" xmlns="http://www.w3.org/2000/svg" xmlns:xlink="http://www.w3.org/1999/xlink" x="0px" y="0px" viewBox="0 0 197 88.8" style="enable-background:new 0 0 197 88.8;" xml:space="preserve">
 <style type="text/css">
  .st0{fill:#FFFFFF;}
	.st1{fill:#6DB144;}
 </style>
 <metadata>
  <sfw xmlns="ns_sfw;">
   <slices>
   </slices>
   <sliceSourceBounds bottomLeftOrigin="true" height="88.8" width="197" x="0" y="0">
   </sliceSourceBounds>
  </sfw>
 </metadata>
 <g>
  <path class="st0" d="M3.4,83.7v3.4h0.8c0.9,0,1.3-0.4,1.3-1.7c0-1.2-0.4-1.7-1.3-1.7C4.2,83.7,3.4,83.7,3.4,83.7z M3.4,79.2v3h0.9
		c0.9,0,1.3-0.4,1.3-1.5s-0.4-1.5-1.3-1.5H3.4z M4.5,77.7c1,0,1.7,0.2,2.1,0.7c0.5,0.5,0.7,1.1,0.7,2.3c0,0.8-0.1,1.4-0.6,1.9
		c-0.2,0.2-0.3,0.3-0.6,0.4c0.2,0.1,0.4,0.2,0.6,0.4c0.5,0.5,0.6,1.2,0.6,2.2c0,1.3-0.2,1.9-0.7,2.5c-0.5,0.5-1.1,0.7-2.2,0.7H1.7
		v-11L4.5,77.7L4.5,77.7z">
  </path>
  <polygon class="st0" points="14.4,79.2 11.5,79.2 11.5,82.3 14,82.3 14,83.9 11.5,83.9 11.5,87.1 14.4,87.1 14.4,88.7 9.8,88.7 
		9.8,77.7 14.4,77.7 	">
  </polygon>
  <polygon class="st0" points="21.9,79.2 20.1,79.2 20.1,88.7 18.3,88.7 18.3,79.2 16.5,79.2 16.5,77.7 21.9,77.7 	">
  </polygon>
  <polygon class="st0" points="29.2,79.2 27.3,79.2 27.3,88.7 25.6,88.7 25.6,79.2 23.7,79.2 23.7,77.7 29.2,77.7 	">
  </polygon>
  <polygon class="st0" points="36.1,79.2 33.2,79.2 33.2,82.3 35.7,82.3 35.7,83.9 33.2,83.9 33.2,87.1 36.1,87.1 36.1,88.7 
		31.4,88.7 31.4,77.7 36.1,77.7 	">
  </polygon>
  <path class="st0" d="M40.5,79.2v3.4h1.1c0.9,0,1.1-0.8,1.1-1.7s-0.1-1.7-1.1-1.7C41.6,79.2,40.5,79.2,40.5,79.2z M41.5,77.7
		c2,0,2.8,1,2.8,3.3c0,1.4-0.3,2.3-1.3,2.9l1.6,4.9h-1.8l-1.4-4.5h-1v4.5h-1.7v-11h2.8V77.7z">
  </path>
  <polygon class="st0" points="55.9,79.2 53,79.2 53,82.4 55.5,82.4 55.5,83.9 53,83.9 53,88.7 51.2,88.7 51.2,77.7 55.9,77.7 	">
  </polygon>
  <path class="st0" d="M61.9,86.8c0.3-0.5,0.4-1.6,0.4-3.7c0-2,0-3.1-0.4-3.7c-0.2-0.2-0.4-0.4-0.8-0.4c-0.4,0-0.7,0.2-0.8,0.4
		c-0.3,0.5-0.4,1.6-0.4,3.7c0,2,0.1,3.1,0.4,3.7c0.2,0.2,0.4,0.4,0.8,0.4C61.5,87.3,61.8,87.1,61.9,86.8 M59,87.9
		c-0.7-0.9-0.8-2.1-0.8-4.7s0.1-3.8,0.8-4.7c0.4-0.5,1.1-0.9,2.1-0.9s1.7,0.4,2.1,0.9c0.7,0.9,0.8,2.1,0.8,4.7s-0.1,3.8-0.8,4.7
		c-0.4,0.5-1.1,0.9-2.1,0.9S59.4,88.4,59,87.9">
  </path>
  <path class="st0" d="M70.3,86.8c0.3-0.5,0.4-1.6,0.4-3.7c0-2,0-3.1-0.4-3.7c-0.2-0.2-0.4-0.4-0.8-0.4s-0.7,0.2-0.8,0.4
		c-0.3,0.5-0.4,1.6-0.4,3.7c0,2,0.1,3.1,0.4,3.7c0.2,0.2,0.4,0.4,0.8,0.4C69.8,87.3,70.1,87.1,70.3,86.8 M67.3,87.9
		c-0.7-0.9-0.8-2.1-0.8-4.7s0.1-3.8,0.8-4.7c0.4-0.5,1.1-0.9,2.1-0.9s1.7,0.4,2.1,0.9c0.7,0.9,0.8,2.1,0.8,4.7s-0.1,3.8-0.8,4.7
		c-0.4,0.5-1.1,0.9-2.1,0.9S67.7,88.4,67.3,87.9">
  </path>
  <path class="st0" d="M76.8,79.2v7.9h1c0.4,0,0.7-0.2,0.9-0.4c0.3-0.5,0.4-1.6,0.4-3.5s0-3-0.4-3.5c-0.2-0.3-0.5-0.4-0.9-0.4
		L76.8,79.2L76.8,79.2z M77.9,77.7c1.1,0,1.7,0.4,2.1,0.9c0.7,0.8,0.8,2,0.8,4.6c0,2.5-0.1,3.8-0.8,4.6c-0.4,0.5-1.1,0.9-2.1,0.9
		h-2.8v-11H77.9z">
  </path>
  <rect x="82.3" y="86.8" class="st0" width="1.9" height="1.9">
  </rect>
  <path class="st0" d="M92.7,83.7v3.4h0.8c0.9,0,1.3-0.4,1.3-1.7c0-1.2-0.4-1.7-1.3-1.7C93.5,83.7,92.7,83.7,92.7,83.7z M92.7,79.2v3
		h0.9c0.9,0,1.3-0.4,1.3-1.5s-0.4-1.5-1.3-1.5H92.7z M93.8,77.7c1,0,1.7,0.2,2.1,0.7c0.5,0.5,0.7,1.1,0.7,2.3c0,0.8-0.1,1.4-0.6,1.9
		c-0.2,0.2-0.3,0.3-0.6,0.4c0.2,0.1,0.5,0.2,0.6,0.4c0.5,0.5,0.6,1.2,0.6,2.2c0,1.3-0.2,1.9-0.7,2.5c-0.5,0.5-1.1,0.7-2.2,0.7H91
		v-11L93.8,77.7L93.8,77.7z">
  </path>
  <polygon class="st0" points="103.7,79.2 100.8,79.2 100.8,82.3 103.3,82.3 103.3,83.9 100.8,83.9 100.8,87.1 103.7,87.1 
		103.7,88.7 99.1,88.7 99.1,77.7 103.7,77.7 	">
  </polygon>
  <polygon class="st0" points="111.2,79.2 109.4,79.2 109.4,88.7 107.6,88.7 107.6,79.2 105.8,79.2 105.8,77.7 111.2,77.7 	">
  </polygon>
  <polygon class="st0" points="118.5,79.2 116.6,79.2 116.6,88.7 114.9,88.7 114.9,79.2 113,79.2 113,77.7 118.5,77.7 	">
  </polygon>
  <polygon class="st0" points="125.4,79.2 122.5,79.2 122.5,82.3 125,82.3 125,83.9 122.5,83.9 122.5,87.1 125.4,87.1 125.4,88.7 
		120.7,88.7 120.7,77.7 125.4,77.7 	">
  </polygon>
  <path class="st0" d="M129.8,79.2v3.4h1.1c0.9,0,1.1-0.8,1.1-1.7s-0.1-1.7-1.1-1.7C130.9,79.2,129.8,79.2,129.8,79.2z M130.8,77.7
		c2,0,2.8,1,2.8,3.3c0,1.4-0.3,2.3-1.3,2.9l1.6,4.9h-1.8l-1.4-4.5h-1v4.5H128v-11h2.8V77.7z">
  </path>
  <polygon class="st0" points="145.2,79.2 142.3,79.2 142.3,82.4 144.8,82.4 144.8,83.9 142.3,83.9 142.3,88.7 140.5,88.7 
		140.5,77.7 145.2,77.7 	">
  </polygon>
  <path class="st0" d="M153.3,86c0,0.8-0.3,1.5-0.8,2s-1.2,0.8-2,0.8c-0.9,0-1.5-0.3-2.1-0.8c-0.5-0.5-0.8-1.2-0.8-2v-8.3h1.7v8.2
		c0,0.9,0.4,1.3,1.1,1.3c0.7,0,1.1-0.4,1.1-1.3v-8.2h1.7V86H153.3z">
  </path>
  <polygon class="st0" points="161,79.2 159.2,79.2 159.2,88.7 157.4,88.7 157.4,79.2 155.6,79.2 155.6,77.7 161,77.7 	">
  </polygon>
  <path class="st0" d="M169,86c0,0.8-0.3,1.5-0.8,2s-1.2,0.8-2,0.8c-0.9,0-1.5-0.3-2.1-0.8c-0.5-0.5-0.8-1.2-0.8-2v-8.3h1.7v8.2
		c0,0.9,0.4,1.3,1.1,1.3c0.7,0,1.1-0.4,1.1-1.3v-8.2h1.7V86H169z">
  </path>
  <path class="st0" d="M173.6,79.2v3.4h1.1c0.9,0,1.1-0.8,1.1-1.7s-0.1-1.7-1.1-1.7C174.7,79.2,173.6,79.2,173.6,79.2z M174.7,77.7
		c2,0,2.8,1,2.8,3.3c0,1.4-0.3,2.3-1.3,2.9l1.6,4.9H176l-1.4-4.5h-1v4.5h-1.7v-11h2.8V77.7z">
  </path>
  <polygon class="st0" points="185.1,79.2 182.2,79.2 182.2,82.3 184.7,82.3 184.7,83.9 182.2,83.9 182.2,87.1 185.1,87.1 
		185.1,88.7 180.5,88.7 180.5,77.7 185.1,77.7 	">
  </polygon>
  <rect x="186.8" y="86.8" class="st0" width="1.9" height="1.9">
  </rect>
  <polygon class="st0" points="136.7,69.4 122.4,69.4 122.4,7.1 165.5,7.1 165.5,20.4 136.7,20.4 136.7,36.1 159.1,36.1 159.1,49.2 
		136.7,49.2 	">
  </polygon>
  <rect x="172.7" y="7.1" class="st0" width="14.3" height="62.3">
  </rect>
  <path class="st0" d="M85.9,5.9c14.5,0,25,10.1,25,24v39.4H96.6v-39c0-7.1-4.1-11.6-10.7-11.6c-6.7,0-10.9,4.4-10.9,11.6v39H60.7
		V29.9C60.7,16,71.3,5.9,85.9,5.9">
  </path>
  <path class="st0" d="M191.2,65.6v3.8h-0.6v-3.8h-1.2V65h3v0.5L191.2,65.6L191.2,65.6z M196.4,69.4v-3.1l-1,2h-0.6l-1-2v3.1h-0.6V65
		h0.6l1.3,2.6l1.3-2.6h0.6v4.3L196.4,69.4L196.4,69.4z">
  </path>
  <path class="st0" d="M32.3,55.2c-1.8,1.6-4.3,2.5-7.3,2.5c-6.6,0-10.7-4.4-10.7-11.6v-39H0v39.4c0,13.9,10.5,24,25,24
		c2.6,0,5-0.3,7.3-0.9V55.2z">
  </path>
  <path class="st1" d="M50.1,0c-8.5,3.6-14.3,14.2-14.3,24.4v44c8.5-3.6,14-11.4,14.3-21.2V0z">
  </path>
 </g>
</svg>