<?xml version="1.0" encoding="utf-8"?>
<!-- Generator: Adobe Illustrator 24.2.1, SVG Export Plug-In . SVG Version: 6.00 Build 0)  -->
<svg version="1.1"
	 id="svg12954" xmlns:cc="http://creativecommons.org/ns#" xmlns:dc="http://purl.org/dc/elements/1.1/" xmlns:inkscape="http://www.inkscape.org/namespaces/inkscape" xmlns:rdf="http://www.w3.org/1999/02/22-rdf-syntax-ns#" xmlns:sodipodi="http://sodipodi.sourceforge.net/DTD/sodipodi-0.dtd" xmlns:svg="http://www.w3.org/2000/svg"
	 xmlns="http://www.w3.org/2000/svg" xmlns:xlink="http://www.w3.org/1999/xlink" x="0px" y="0px" viewBox="0 0 480.8 158.4"
	 style="enable-background:new 0 0 480.8 158.4;" xml:space="preserve">
<style type="text/css">
	.st0{fill:#7D8386;}
	.st1{fill:#83BB26;}
	.st2{fill:#CAD200;}
	.st3{fill:#499C2D;}
</style>
<sodipodi:namedview  bordercolor="#666666" borderopacity="1.0" fit-margin-bottom="0" fit-margin-left="0" fit-margin-right="0" fit-margin-top="0" id="base" inkscape:current-layer="layer1" inkscape:cx="86.120534" inkscape:cy="28.366658" inkscape:document-units="mm" inkscape:pageopacity="0.0" inkscape:pageshadow="2" inkscape:window-height="744" inkscape:window-maximized="1" inkscape:window-width="1280" inkscape:window-x="-4" inkscape:window-y="-4" inkscape:zoom="5.2078172" pagecolor="#ffffff" showgrid="false" units="px">
	</sodipodi:namedview>
<path id="path11422" inkscape:connector-curvature="0" class="st0" d="M286.7,134c-1.4-0.6-3.2-1-4.7-1c-1.5,0-3.4,0.6-3.4,2.9
	c0,3.7,9.4,2.1,9.4,9.2c0,4.6-3.7,6.4-8.1,6.4c-2.3,0-3.4-0.3-5.5-0.8l0-3.8c1.5,0.8,3.6,1.3,5.3,1.3c1.6,0,3.8-0.8,3.8-2.7
	c0-4-9.4-2.4-9.4-9.4c0-4.7,3.7-6.4,7.5-6.4c1.8,0,3.6,0.2,5.1,0.8L286.7,134z"/>
<path id="path11426" inkscape:connector-curvature="0" class="st0" d="M311.4,139.3c-1.2-0.4-2.3-0.6-3.8-0.6
	c-1.1,0-2.4,0.4-2.4,1.7c0,2.4,7,0.9,7,6.3c0,3.5-3.2,4.9-6.4,4.9c-1.5,0-3.1-0.3-4.5-0.6l0.2-3.2c1.3,0.6,2.6,1,3.9,1
	c1,0,2.6-0.4,2.6-1.9c0-3-7-0.9-7-6.4c0-3.3,2.9-4.7,6-4.7c1.9,0,3.1,0.3,4.4,0.6L311.4,139.3z"/>
<path id="path11430" inkscape:connector-curvature="0" class="st0" d="M324,139.4c-0.7-0.3-1.5-0.6-2.7-0.6c-2.5,0-4.1,1.9-4.1,4.8
	c0,2.8,1.3,4.9,4.1,4.9c1.1,0,2.4-0.4,3.1-0.7l0.2,3.3c-1.2,0.4-2.4,0.5-4,0.5c-5,0-7.6-3.4-7.6-8c0-4.4,2.6-7.8,7.4-7.8
	c1.6,0,2.8,0.2,3.9,0.5L324,139.4z"/>
<path id="path11434" inkscape:connector-curvature="0" class="st0" d="M333.1,148.6c3.1,0,3.9-2.7,3.9-5.2c0-2.3-1.3-4.5-3.9-4.5
	c-2.6,0-3.8,2.2-3.8,4.5C329.3,145.8,330.1,148.6,333.1,148.6 M333.1,135.8c4.6,0,8.1,3,8.1,8c0,4.3-3,7.8-8.1,7.8
	c-5.1,0-8-3.5-8-7.8C325.1,138.8,328.6,135.8,333.1,135.8"/>
<path id="path11438" inkscape:connector-curvature="0" class="st0" d="M301.5,135.9h-4.1l-7.6,20.8h3.7L301.5,135.9z"/>
<path id="path11442" inkscape:connector-curvature="0" class="st0" d="M284.9,135.5c1.7,1.7,3.4,3.8,4.6,6.3c1.1,2.2,1.7,4.3,2,6.5
	c0,0.1,0.1,0.1,0.1,0c1.5-2.5,2.3-6,1-8.6c-1.4-2.7-4.7-4-7.7-4.3C284.8,135.4,284.8,135.5,284.9,135.5"/>
<path id="path11446" inkscape:connector-curvature="0" class="st0" d="M260.7,143.7c-2.8-0.1-5.4,0.5-5.4,2.9c0,1.5,1,2.2,2.2,2.2
	c1.6,0,2.7-1,3.1-2.1c0.1-0.3,0.1-0.6,0.1-0.9L260.7,143.7z M261.2,151.3l-0.3-1.7h-0.1c-1,1.2-2.6,2.1-4.6,2.1
	c-3.1,0-4.9-2.3-4.9-4.6c0-3.9,3.5-5.9,9.2-5.9v-0.3c0-1-0.4-2.7-3.2-2.7c-1.5,0-3.1,0.5-4.2,1.2l-0.8-2.6c1.1-0.7,3.2-1.4,5.6-1.4
	c5,0,6.4,3.2,6.4,6.6v5.6c0,1.4,0.1,2.8,0.2,3.7L261.2,151.3z"/>
<path id="path11450" inkscape:connector-curvature="0" class="st0" d="M361.6,150.8c-0.8,0.4-2.5,0.8-4.4,0.8c-4.9,0-8-3.1-8-7.9
	c0-4.7,3.2-8.3,8.7-8.3c1.4,0,2.9,0.3,3.8,0.7L361,139c-0.6-0.3-1.6-0.6-3-0.6c-3,0-4.8,2.2-4.8,5.1c0,3.2,2.1,5,4.8,5
	c1.4,0,2.3-0.3,3.1-0.6L361.6,150.8z"/>
<path id="path11454" inkscape:connector-curvature="0" class="st0" d="M367.3,143.5c0,3,1.5,5.3,3.9,5.3c2.2,0,3.8-2.2,3.8-5.3
	c0-2.4-1.1-5.2-3.8-5.2C368.4,138.2,367.3,140.9,367.3,143.5 M379.1,143.4c0,5.7-4,8.3-8,8.3c-4.4,0-7.8-3-7.8-8
	c0-5.1,3.4-8.3,8.1-8.3C376,135.4,379.1,138.6,379.1,143.4"/>
<path id="path11458" inkscape:connector-curvature="0" class="st0" d="M382.3,140.4c0-1.8,0-3.3-0.1-4.6h3.4l0.2,2.3h0.1
	c0.8-1.2,2.2-2.7,4.8-2.7c2,0,3.6,1.2,4.3,2.9h0.1c0.5-0.9,1.2-1.5,1.9-2c0.9-0.6,1.9-0.9,3.1-0.9c2.6,0,5.2,1.8,5.2,6.8v9.2h-3.8
	v-8.6c0-2.6-0.9-4.1-2.8-4.1c-1.3,0-2.3,1-2.8,2.1c-0.1,0.4-0.2,0.9-0.2,1.3v9.3h-3.8v-9c0-2.2-0.9-3.7-2.7-3.7
	c-1.5,0-2.5,1.2-2.8,2.2c-0.2,0.4-0.2,0.8-0.2,1.3v9.2h-3.8L382.3,140.4z"/>
<path id="path11462" inkscape:connector-curvature="0" class="st0" d="M413.3,144.8c0,0.4,0,0.7,0.1,1.1c0.4,1.6,1.8,2.8,3.5,2.8
	c2.5,0,4-2.1,4-5.2c0-2.7-1.3-5-3.9-5c-1.6,0-3.1,1.2-3.5,2.9c-0.1,0.3-0.2,0.7-0.2,1L413.3,144.8z M409.4,140.9
	c0-2-0.1-3.7-0.1-5.2h3.4l0.2,2.4h0.1c1.1-1.8,3-2.8,5.3-2.8c3.6,0,6.6,3.1,6.6,7.9c0,5.6-3.5,8.3-7.1,8.3c-2,0-3.6-0.8-4.4-2.1
	h-0.1v8.1h-3.9L409.4,140.9z"/>
<path id="path11466" inkscape:connector-curvature="0" class="st0" d="M436.4,143.7c-2.8-0.1-5.4,0.5-5.4,2.9c0,1.5,1,2.2,2.2,2.2
	c1.6,0,2.7-1,3.1-2.1c0.1-0.3,0.1-0.6,0.1-0.9V143.7z M436.9,151.3l-0.3-1.7h-0.1c-1,1.2-2.6,2.1-4.6,2.1c-3.1,0-4.9-2.3-4.9-4.6
	c0-3.9,3.5-5.9,9.2-5.9v-0.3c0-1-0.4-2.7-3.2-2.7c-1.5,0-3.1,0.5-4.2,1.2l-0.8-2.6c1.1-0.7,3.2-1.4,5.6-1.4c5,0,6.4,3.2,6.4,6.6v5.6
	c0,1.4,0.1,2.8,0.2,3.7L436.9,151.3z"/>
<path id="path11470" inkscape:connector-curvature="0" class="st0" d="M444.4,140.4c0-1.8,0-3.3-0.1-4.6h3.4l0.2,2.3h0.1
	c0.7-1.2,2.4-2.7,5-2.7c2.7,0,5.5,1.8,5.5,6.7v9.2h-3.9v-8.8c0-2.2-0.8-3.9-3-3.9c-1.6,0-2.7,1.1-3.1,2.3c-0.1,0.4-0.2,0.8-0.2,1.3
	v9.1h-4L444.4,140.4z"/>
<path id="path11474" inkscape:connector-curvature="0" class="st0" d="M464.6,135.7l2.8,8.4c0.3,1,0.6,2.1,0.9,3h0.1
	c0.2-0.9,0.5-2.1,0.8-3.1l2.4-8.3h4.2l-3.9,10.6c-2.1,5.8-3.6,8.4-5.4,10c-1.5,1.4-3.1,1.9-4.1,2l-0.9-3.3c0.7-0.2,1.5-0.5,2.3-1.1
	c0.7-0.5,1.6-1.4,2.1-2.5c0.2-0.3,0.3-0.5,0.3-0.7c0-0.2,0-0.4-0.2-0.8l-5.7-14.3L464.6,135.7z"/>
<path id="path11478" inkscape:connector-curvature="0" class="st1" d="M101.1,116.4c17.2-13.1,27.3-34.7,24.5-57.8
	C121.5,24.8,91.2,0.4,57.5,3.4c21.2,16.7,24,33,23.9,49.3c-0.1,11.8-2.6,19.3,0.7,35.2C84.5,99.6,92.4,111.2,101.1,116.4"/>
<path id="path11482" inkscape:connector-curvature="0" class="st2" d="M8.5,34.6C3.1,43.9,0,54.7,0,66.2c0,34.8,28.2,63,63,63
	c6.2,0,12.3-0.9,17.9-2.6c0.1-18.5-7.5-30.5-17.4-37.4c-12-8.3-26-8.2-39.3-21.4C16.3,60,10.3,49.7,8.5,34.6"/>
<path id="path11486" inkscape:connector-curvature="0" class="st3" d="M55.7,14.2c0,0,0.4,3.2-0.5,7C47.8,13.1,33,13.2,25.5,0
	C4.3,38.6,26,72.9,67.1,74.2C74.8,50.1,72.8,28.3,55.7,14.2"/>
<path id="path11490" inkscape:connector-curvature="0" class="st3" d="M267.2,93.6c-7.9,0-11.6-4.5-11.6-9.4
	c-0.1-7.1,4.4-10.4,14.8-11.8c6.9-0.9,14.8-1.7,18.6-3.3C289,83.3,278.7,93.6,267.2,93.6 M293.1,39.9c-5.3-4.8-12.4-7-21.4-7.2
	c-6.8-0.1-12.9,0.7-16.4,1.8c-1.2,0.4-2,1.2-2,2.6v7.5c0,1.7,1.2,2.4,2.7,2c4.6-1.2,9.6-2.1,15.7-2c9.7,0.2,15.4,4.5,16.6,13.3
	c-5.2,2-11.6,2-22,3.8c-7.8,1.3-14,3.8-17.8,7.9c-3.6,3.9-5.5,9.1-5.5,15.1c0,12.4,9.7,20.6,23.5,20.6c9.7,0,19-5.4,23-12.4v3.9
	c0,5.4,4.5,7.5,11.8,6.7V63.4C301.5,51.6,298.8,45,293.1,39.9"/>
<path id="path11494" inkscape:connector-curvature="0" class="st3" d="M373.2,62.8c2-11.3,9.9-18.5,19.9-18.5
	c10.2,0,18.1,7.2,19.3,18.5H373.2z M393.1,32.7c-18.4,0-33,15.8-33,36.5c0,21.5,14.7,36.2,35.2,36.2c6.8,0,12.1-1.3,15.1-2.8
	c5.4-2.7,7.4-6.2,5.4-15c-5.5,3.9-12,6.2-19.7,6.2c-10.6,0-20.7-5.8-22.9-19.5h43.4c6.4,0,8.4-2.6,8.4-8.9
	C425,49.8,414,32.7,393.1,32.7"/>
<path id="path11498" inkscape:connector-curvature="0" class="st3" d="M466.7,64.3c-5.7-2.2-12.5-3-18.4-4.7
	c-4.3-1.3-6.8-3.5-6.8-6.7c0-4.4,4.4-8.2,11.5-8.2c6.2,0,10.7,1.8,14.7,5.5c1.5,1.4,2.4,1.5,4.2,0.2c0,0,3.7-2.7,5.2-3.8
	c1.3-1,1.6-2.2,0.7-3.4c-5-6.5-14.6-10.4-23.8-10.4c-14.4,0-25,8.5-25,20.5c0,8.2,3.9,13,9.5,15.9c7.8,4,16.9,4.7,22.9,6.7
	c5,1.7,6.4,4.5,6.4,7.9c0,5.7-5.4,9.8-14.5,9.8c-8.8,0-16.6-3.1-23.5-9.7c-4.7,6.4-4.3,11-0.8,14c5.7,5,15.7,7.6,24.1,7.6
	c17.3,0,27.7-9.3,27.7-22.1C480.8,72.7,474.6,67.3,466.7,64.3"/>
<path id="path11502" inkscape:connector-curvature="0" class="st3" d="M247.7,44.5v-7.7c0-1.6-0.8-2.3-2.4-2.3c-0.5,0-1.2,0-1.5,0
	c-9.2,0-17.1,3.2-21.2,9.7v-3c0-5.4-6.3-6.8-11.8-6.8v66.9c0,1.8,1.3,2.4,2.8,2.4h6.9c1.6,0,2.9-0.6,2.9-2.3V70
	c0-9.3,1.4-13.9,6.1-18.7c3.4-3.5,8.1-4.5,13.4-4.5h2.7C247,46.9,247.7,46.2,247.7,44.5"/>
<path id="path11506" inkscape:connector-curvature="0" class="st3" d="M172.5,93.7c-4.9,0-10.4-2.2-13.8-7
	c-2.7-3.7-3.8-8.3-3.8-15.3c0-5.4,0-4.6,0-13.2c2.8-7.4,9.8-13.7,18.1-13.7c12.2,0,19.5,10.1,19.5,24.6
	C192.5,83.8,184.9,93.7,172.5,93.7 M174.6,32.7c-7.4,0-14.7,3-19.7,8.2V11.9c0-6.1-4.7-8.7-12.7-8.8v66c0,15.2-2.2,22.7-8.3,32.5
	c6.9,3.8,12.9,3.2,16.9-7.6c5.4,7.8,14.4,11.4,22.4,11.4c18.7,0,32-13.5,32-36.3C205.2,48.1,193.5,32.7,174.6,32.7"/>
<path id="path11510" inkscape:connector-curvature="0" class="st3" d="M363.1,37.9c1.3-2.2,0.1-3.4-1.4-3.4h-8.1
	c-1.9,0-3.9-0.1-5.3,1.9c-6.2,9.1-16.4,15.9-26,18.8V12c0-6.1-4.7-8.7-12.7-8.8v98.2c0,1.8,1.3,2.4,2.8,2.4h6.9
	c1.6,0,2.9-0.6,2.9-2.3V67.2c1.3-0.3,2.5-0.7,3.7-1.1c7.4,10.5,21.5,30.5,24.1,34.2c3.5,4.9,8.8,4.4,15.4-0.1l-27.7-39
	C348.7,55.4,357.5,47.4,363.1,37.9"/>
</svg>
