<svg version="1.1" id="Layer_1" xmlns="http://www.w3.org/2000/svg" xmlns:xlink="http://www.w3.org/1999/xlink" x="0px" y="0px" viewBox="0 0 397.2 84.3" style="enable-background:new 0 0 397.2 84.3;" xml:space="preserve">
 <style type="text/css">
  .st0{fill-rule:evenodd;clip-rule:evenodd;fill:#5C8018;}
 </style>
 <g>
  <path class="st0" d="M372,0.7v43.1h25.2v-5.6h-19V24.8H396v-5.6h-17.8v-13h18.4V0.7L372,0.7 M60,0.7L48.2,30.4L36.1,0.7h-5.9
		l-12,29.7L6.2,0.7H0l17.5,43.5h1.2L33.1,8.9l14.2,35.3h1.2L66.1,0.7H60 M134.5,43.8h6.2V0.7h-6.2V43.8z M339.5,26.3l-4.7-2.8
		c-3-1.8-4.8-3.6-6.2-5.3c-1.4-1.7-2.1-3.9-2.1-6.1c0-3.4,1.2-6.1,3.6-8.3c2.4-2.1,5.5-3.1,9.3-3.1c4,0,6.9,1,10,3v7
		c-3.1-3-6.5-4.5-10.1-4.5c-2,0-3.7,0.5-5,1.4c-1.3,0.9-2,2.2-2,3.6c0,1.3,0.3,2.4,1.3,3.5c1,1.1,2.7,2.4,4.8,3.7l4.9,2.8
		c5.3,3.1,7.7,7.1,7.7,12c0,3.5-1.2,6.3-3.5,8.5c-2.3,2.2-5.3,3.3-9,3.2c-4.3-0.1-8.1-1.3-11.7-4v-7.8c3.4,4.2,7.2,6.2,11.6,6.2
		c1.9,0,3.6-0.4,4.9-1.5c1.3-1.1,2-2.4,2-4C345.3,31.2,343.3,28.7,339.5,26.3 M102,25.8l-7-15.6l-6.5,15.6H102z M92.9,0.7h4.4
		l19.4,43.3h-6.3l-5.8-12.8H86.1l-5.4,12.8h-6.4L92.9,0.7L92.9,0.7z M158.4,0.7h36.3v5.5h-15v37.6h-6.2V6.2h-15.1V0.7 M222.1,5.9
		h-1.9v13.6h2.4c3.1,0,5.3-0.3,6.5-0.8c1.1-0.5,2.1-1.4,2.7-2.4c0.7-1.1,1-2.3,1-3.7c0-1.4-0.4-2.6-1.1-3.7
		c-0.7-1.1-1.7-1.9-3.1-2.3C227.3,6.2,225.1,5.9,222.1,5.9L222.1,5.9z M213.9,43.8V0.7h11c4.4,0,7.9,1.1,10.4,3.2
		c2.6,2.2,3.9,5.1,3.9,8.8c0,2.5-0.6,4.7-1.9,6.5c-1.3,1.8-3,3.2-5.3,4.1c1.4,0.9,2.7,2.1,4.1,3.7s3.1,4.3,5.5,8.2
		c1.5,2.4,2.8,4.3,3.7,5.5l2.3,3.1h-7.5c0,0-2-3.1-2.2-3.4l-3.1-4.8l-2.3-3.4c-1.3-1.8-2.5-3.2-3.5-4.3c-1.1-1-1.9-1.7-2.8-2.2
		c-0.9-0.5-2.4-0.7-4.5-0.7h-1.6v18.8H213.9z M285.3,5.9c-5,0-9,1.5-12.2,4.6c-3.2,3.1-4.8,7-4.8,11.8c0,4.6,1.6,8.5,4.8,11.6
		c3.2,3.1,7.2,4.6,12,4.6c4.8,0,8.9-1.6,12.1-4.7c3.2-3.1,4.8-7.1,4.8-11.7c0-4.6-1.6-8.4-4.8-11.5C294,7.4,290,5.9,285.3,5.9
		L285.3,5.9z M285,0c6.7,0,12.3,2.1,16.7,6.3c4.5,4.2,6.7,9.5,6.7,15.9s-2.2,11.6-6.7,15.8c-4.5,4.2-10.2,6.2-17,6.2
		c-6.5,0-12-2.1-16.3-6.2c-4.3-4.2-6.5-9.4-6.5-15.6c0-6.4,2.2-11.8,6.6-16C272.8,2.1,278.4,0,285,0L285,0z M129.8,68.4h-2.6v5.4
		h2.8c1.9,0,3.2-0.8,3.2-2.7C133.1,69.3,132,68.4,129.8,68.4L129.8,68.4z M124.7,83.5V66.2h5.5c1.7,0,3,0.4,4,1.3
		c1,0.9,1.5,2.1,1.5,3.6c0,1-0.2,1.9-0.7,2.7c-0.5,0.8-1.2,1.3-2.1,1.7c-1.1,0.4-2,0.5-3.8,0.5h-1.9v7.5
		C127.2,83.5,124.7,83.5,124.7,83.5z M154.1,76.3l-2.8-6.2l-2.6,6.2H154.1z M150.4,66.2h1.7l7.8,17.4h-2.5l-2.3-5.1h-7.4l-2.2,5.1
		h-2.6L150.4,66.2z M194.8,66.2h14.6v2.2h-6v15.1h-2.5V68.4h-6V66.2 M235.2,66.2h2.4v17.3h-2.1l-11.7-13.3v13.3h-2.3V66.2h2
		l11.8,13.4L235.2,66.2 M252.3,66.2h9.8v2.2h-7.4v5.3h7.1v2.2h-7.1v5.4h7.6v2.2h-10.1L252.3,66.2 M175.7,68.3h-0.7v5.4h0.9
		c1.3,0,2.1-0.1,2.6-0.3c1-0.5,1.5-1.4,1.5-2.4c0-1.1-0.6-2-1.7-2.4C177.7,68.4,176.9,68.3,175.7,68.3L175.7,68.3z M172.4,83.5V66.2
		h4.4c1.8,0,3.1,0.4,4.2,1.3c1,0.9,1.5,2,1.5,3.5c0,1-0.3,1.9-0.8,2.6c-0.5,0.7-1.2,1.3-2.1,1.6c0.6,0.4,1.1,0.9,1.6,1.5
		c0.5,0.6,1.2,1.7,2.2,3.3c0.5,0.8,1,1.5,1.5,2.2l0.9,1.2h-3c0,0-0.8-1.2-0.9-1.3l-1.3-1.9l-0.9-1.3c-0.5-0.7-1-1.3-1.4-1.7
		c-0.4-0.4-0.8-0.7-1.1-0.9c-0.3-0.2-1-0.3-1.8-0.3h-0.6v7.5L172.4,83.5L172.4,83.5z">
  </path>
  <g>
   <path class="st0" d="M278.5,69h-0.7v5.4h0.9c1.3,0,2.1-0.1,2.6-0.3c1-0.5,1.5-1.4,1.5-2.4c0-1.1-0.6-2-1.7-2.4
			C280.6,69.1,279.7,69,278.5,69z M275.2,84.1V66.9h4.4c1.8,0,3.1,0.4,4.2,1.3c1,0.9,1.5,2,1.5,3.5c0,1-0.3,1.9-0.8,2.6
			c-0.5,0.7-1.2,1.3-2.1,1.6c0.6,0.4,1.1,0.9,1.6,1.5c0.5,0.6,1.2,1.7,2.2,3.3c0.6,1,1.1,1.7,1.5,2.2l0.9,1.2h-3
			c0,0-0.8-1.2-0.9-1.3l-1.3-1.9l-0.9-1.3c-0.5-0.7-1-1.3-1.4-1.7c-0.4-0.4-0.8-0.7-1.1-0.9c-0.3-0.2-1-0.3-1.8-0.3h-0.6v7.5
			L275.2,84.1L275.2,84.1z M305.1,76.9l-1.9-1.1c-1.2-0.7-2-1.4-2.5-2.1s-0.8-1.5-0.8-2.4c0-1.4,0.5-2.5,1.4-3.3
			c0.9-0.8,2.2-1.3,3.7-1.3c1.5,0,2.8,0.4,4,1.2v2.8c-1.3-1.2-2.6-1.8-4-1.8c-0.8,0-1.5,0.2-2,0.6c-0.5,0.4-0.8,0.9-0.8,1.4
			c0,0.5,0.2,1,0.6,1.5c0.4,0.5,1,0.9,1.9,1.4l1.9,1.1c2.1,1.3,3.2,2.9,3.2,4.8c0,1.4-0.5,2.5-1.4,3.4c-0.9,0.9-2.1,1.3-3.6,1.3
			c-1.7,0-3.3-0.5-4.7-1.6v-3.1c1.3,1.7,2.9,2.5,4.7,2.5c0.8,0,1.4-0.2,1.9-0.6s0.8-1,0.8-1.6C307.4,78.8,306.6,77.8,305.1,76.9
			 M96.4,80.6c-1.6,1.8-5.2,2.4-6,0.5c-1-2.2,0.9-3.6,2.4-4.5C92.8,76.7,95.6,79.7,96.4,80.6z M93.5,69.2c1.1,0,1.9,0.5,2.1,1.5
			c0.2,0.9-0.4,1.7-1,2.3c-0.4,0.4-0.8,0.7-1.3,1c-0.6-0.5-1-1-1.3-1.6c-0.3-0.5-0.5-1-0.5-1.5C91.6,69.8,92.5,69.2,93.5,69.2
			L93.5,69.2z M99.3,80.2c1.1-1.4,2-3.9,2.2-4.8l-2.1,0c-0.2,0.7-0.8,2.1-1.5,3.3l-3.1-3.4c1.5-0.9,3.1-2.5,3.1-4.4
			c0-1.1-0.5-2-1.3-2.7c-0.8-0.7-1.9-1.1-3.1-1.1c-1.3,0-2.3,0.4-3.1,1.1c-0.8,0.7-1.2,1.7-1.1,2.9c0.1,1.4,0.8,2.4,2.1,4
			c-0.4,0.2-1.3,0.8-1.6,1.1c-1.5,1.2-2.4,2.5-2.1,4.7c0.2,1.4,1.4,3.3,4.3,3.5c2.4,0.2,4.4-0.7,6-2.2l1.9,2h3.1L99.3,80.2
			L99.3,80.2z">
   </path>
  </g>
 </g>
</svg>