<svg xmlns="http://www.w3.org/2000/svg" viewBox="0 0 65.2 12.5" fill="currentColor"><path d="M33.859 5.629l2.428-.091-2.037 6.713h4.356l2.037-6.713 2.372.091.968-3.187h-9.156l-.968 3.187M24.84 7.372c-.609 3.148-3.946 5.034-7.604 5.034-3.655 0-6.264-1.886-5.654-5.034.597-3.083 3.973-5.086 7.612-5.086 3.641 0 6.243 2.003 5.646 5.086zm-8.881.052c-.216 1.119.558 1.887 1.877 1.887s2.39-.768 2.606-1.887c.201-1.04-.489-1.912-1.872-1.912s-2.409.872-2.611 1.912"/><path d="M23.487 11.509c1.242.56 2.926.897 4.436.897 2.592 0 5.423-1.157 5.876-3.499.321-1.665-.857-2.472-2.636-2.81l-.951-.183c-.321-.064-.852-.117-.78-.481.077-.403.656-.52 1.038-.52.938 0 1.718.324 2.384.741l1.662-2.511c-1.062-.586-2.266-.858-3.633-.858-2.607 0-5.45 1.301-5.9 3.629-.298 1.536.975 2.356 2.627 2.603l.85.131c.385.064.949.104.864.546-.086.442-.797.586-1.227.586-1.001 0-1.861-.403-2.545-.898l-.194-.143-1.871 2.77M52.462 2.689a10.093 10.093 0 0 0-2.848-.403c-3.513 0-6.706 2.289-7.26 5.151-.541 2.797 1.71 4.969 5.127 4.969.779 0 2.424-.117 3.176-.39l.837-3.669c-.808.56-1.671.911-2.672.911-1.304 0-2.271-.833-2.062-1.913.206-1.066 1.436-1.912 2.738-1.912.986 0 1.772.456 2.368.989l.596-3.733M59.436 2.286c-3.641 0-7.017 2.003-7.613 5.086-.608 3.148 1.999 5.034 5.655 5.034s6.994-1.886 7.603-5.034c.596-3.083-2.004-5.086-5.645-5.086zm-.624 3.226c1.383 0 2.072.872 1.871 1.912-.216 1.119-1.287 1.887-2.606 1.887s-2.093-.768-1.876-1.887c.201-1.04 1.228-1.912 2.611-1.912M12.706.487A13.018 13.018 0 0 0 9.155 0C4.773 0 .791 2.768.1 6.227c-.675 3.381 2.132 6.007 6.395 6.007.972 0 3.022-.141 3.961-.472L11.5 7.328c-1.008.676-2.084 1.101-3.333 1.101-1.626 0-2.832-1.007-2.572-2.312.258-1.29 1.79-2.312 3.416-2.312 1.229 0 2.21.55 2.953 1.194l.742-4.512"/></svg>
