<svg xmlns="http://www.w3.org/2000/svg" width="65" height="22" fill="none"><path fill="#ADADAD" d="M27.643 11.282c0 3.054-2.386 5.304-5.313 5.304-2.928 0-5.314-2.25-5.314-5.304 0-3.075 2.386-5.304 5.314-5.304s5.313 2.229 5.313 5.304Zm-2.326 0c0-1.908-1.383-3.214-2.987-3.214-1.605 0-2.988 1.306-2.988 3.214 0 1.89 1.383 3.214 2.988 3.214s2.987-1.327 2.987-3.214Zm13.791 0c0 3.054-2.386 5.304-5.314 5.304s-5.313-2.25-5.313-5.304c0-3.073 2.385-5.304 5.313-5.304s5.314 2.229 5.314 5.304Zm-2.326 0c0-1.908-1.383-3.214-2.988-3.214s-2.987 1.306-2.987 3.214c0 1.89 1.382 3.214 2.987 3.214 1.605 0 2.988-1.327 2.988-3.214Zm13.312-4.983v9.522c0 3.917-2.307 5.517-5.034 5.517-2.568 0-4.113-1.72-4.696-3.126l2.026-.844c.36.863 1.244 1.882 2.667 1.882 1.746 0 2.828-1.078 2.828-3.109v-.762h-.081c-.52.643-1.524 1.205-2.79 1.205-2.648 0-5.075-2.31-5.075-5.283 0-2.994 2.427-5.323 5.075-5.323 1.264 0 2.267.562 2.79 1.186h.081v-.863h2.21V6.3ZM48.05 11.3c0-1.867-1.244-3.233-2.828-3.233-1.605 0-2.95 1.366-2.95 3.233 0 1.849 1.345 3.195 2.95 3.195 1.584 0 2.828-1.346 2.828-3.195ZM53.736.717v15.544h-2.27V.717h2.27Zm8.841 12.311 1.806 1.205c-.583.863-1.987 2.35-4.413 2.35-3.01 0-5.257-2.328-5.257-5.303 0-3.154 2.266-5.304 4.996-5.304 2.749 0 4.093 2.19 4.533 3.374l.241.603-7.08 2.936c.541 1.064 1.384 1.607 2.566 1.607 1.185 0 2.006-.583 2.608-1.468Zm-5.557-1.909 4.733-1.968c-.26-.662-1.043-1.123-1.965-1.123-1.182 0-2.828 1.045-2.768 3.091ZM8.428 9.902v-2.25h7.573c.074.392.112.856.112 1.358 0 1.689-.46 3.776-1.946 5.264-1.445 1.506-3.291 2.31-5.737 2.31-4.532 0-8.344-3.697-8.344-8.236C.086 3.81 3.898.112 8.43.112c2.508 0 4.295.986 5.637 2.27L12.48 3.97c-.963-.904-2.267-1.607-4.053-1.607-3.31 0-5.899 2.67-5.899 5.985 0 3.314 2.589 5.986 5.9 5.986 2.146 0 3.369-.864 4.152-1.648.636-.636 1.053-1.545 1.218-2.786l-5.37.002Z"/></svg>