<svg xmlns="http://www.w3.org/2000/svg" width="86" height="14" fill="none"><g clip-path="url(#a)"><path fill="#fff" d="m13.991 5.07-4.83-.701L7-.008 4.84 4.37l-4.832.7 3.496 3.408-.826 4.81L7 11.02l4.32 2.27-.825-4.81 3.496-3.408Z"/></g><g clip-path="url(#b)"><path fill="#fff" d="m31.991 5.07-4.83-.701L25-.008 22.84 4.37l-4.831.702 3.496 3.408-.826 4.81L25 11.02l4.32 2.27-.825-4.81 3.496-3.408Z"/></g><g clip-path="url(#c)"><path fill="#fff" d="m49.991 5.07-4.83-.701L43-.008 40.84 4.37l-4.831.702 3.496 3.408-.826 4.81L43 11.02l4.32 2.27-.825-4.81 3.496-3.408Z"/></g><g clip-path="url(#d)"><path fill="#fff" d="m67.991 5.07-4.83-.701L61-.008 58.84 4.37l-4.831.702 3.496 3.408-.826 4.81L61 11.02l4.32 2.27-.825-4.81 3.496-3.408Z"/></g><g clip-path="url(#e)"><path fill="#fff" d="m85.991 5.07-4.83-.701L79-.008 76.84 4.37l-4.831.702 3.496 3.408-.826 4.81L79 11.02l4.32 2.27-.825-4.81 3.496-3.408Z"/></g><defs><clipPath id="a"><path fill="#fff" d="M0 0h14v14H0z"/></clipPath><clipPath id="b"><path fill="#fff" d="M18 0h14v14H18z"/></clipPath><clipPath id="c"><path fill="#fff" d="M36 0h14v14H36z"/></clipPath><clipPath id="d"><path fill="#fff" d="M54 0h14v14H54z"/></clipPath><clipPath id="e"><path fill="#fff" d="M72 0h14v14H72z"/></clipPath></defs></svg>