<svg xmlns="http://www.w3.org/2000/svg" width="73" height="22" fill="none"><mask id="a" width="73" height="22" x="0" y="0" maskUnits="userSpaceOnUse" style="mask-type:luminance"><path fill="#fff" d="M72.976 0H0v22h72.976V0Z"/></mask><g fill="#ADADAD" fill-rule="evenodd" clip-rule="evenodd" mask="url(#a)"><path d="M45.273 17.205C41.033 20.332 34.886 22 29.593 22c-7.42 0-14.1-2.746-19.154-7.312-.397-.36-.041-.849.435-.569 5.454 3.175 12.198 5.085 19.164 5.085 4.699 0 9.867-.973 14.62-2.99.717-.306 1.317.47.615.99Z"/><path d="M47.036 15.187c-.54-.693-3.583-.328-4.95-.165-.415.05-.479-.312-.104-.572 2.424-1.707 6.4-1.214 6.865-.642.463.575-.121 4.563-2.399 6.466-.35.293-.683.137-.527-.25.511-1.278 1.658-4.141 1.115-4.837ZM42.182 2.402V.744c0-.251.19-.42.42-.42h7.423c.239 0 .43.172.43.42v1.42c-.004.238-.204.55-.56 1.042l-3.847 5.495c1.43-.035 2.939.178 4.235.909.292.165.371.406.394.645v1.77c0 .241-.267.524-.547.378-2.284-1.198-5.318-1.328-7.843.013-.257.14-.527-.14-.527-.382v-1.68c0-.27.003-.732.273-1.142L46.49 2.82h-3.88c-.238 0-.429-.169-.429-.417Zm-27.081 10.35h-2.258a.426.426 0 0 1-.403-.384V.772c0-.232.193-.416.435-.416h2.106c.219.01.394.178.41.388v1.515h.04C15.982.794 17.015.111 18.406.111c1.414 0 2.297.683 2.932 2.148.547-1.465 1.789-2.148 3.12-2.148.946 0 1.982.391 2.614 1.268.715.976.569 2.393.569 3.636l-.004 7.318c0 .232-.194.42-.435.42h-2.255a.43.43 0 0 1-.407-.42V6.187c0-.49.045-1.71-.063-2.173-.169-.779-.674-.998-1.328-.998-.546 0-1.119.365-1.35.95-.232.585-.21 1.563-.21 2.221v6.146c0 .232-.194.42-.435.42h-2.256a.427.427 0 0 1-.406-.42l-.003-6.146c0-1.293.213-3.197-1.392-3.197-1.623 0-1.56 1.856-1.56 3.197v6.146c0 .232-.193.42-.435.42ZM56.844.111c3.352 0 5.166 2.88 5.166 6.54 0 3.537-2.005 6.343-5.166 6.343-3.29 0-5.082-2.879-5.082-6.467 0-3.61 1.814-6.416 5.082-6.416Zm.02 2.368c-1.665 0-1.77 2.269-1.77 3.683 0 1.417-.022 4.442 1.75 4.442 1.75 0 1.833-2.44 1.833-3.927 0-.98-.041-2.149-.336-3.077-.255-.807-.76-1.121-1.477-1.121Zm9.492 10.273h-2.249a.43.43 0 0 1-.407-.419L63.697.734a.427.427 0 0 1 .435-.378h2.094c.197.01.359.143.403.324v1.773h.042C67.303.868 68.189.111 69.749.111c1.013 0 2.001.366 2.636 1.367.591.928.591 2.488.591 3.61v7.3a.434.434 0 0 1-.435.364h-2.265a.428.428 0 0 1-.4-.365V6.09c0-1.268.146-3.124-1.414-3.124-.55 0-1.054.369-1.306.928-.317.708-.358 1.414-.358 2.196v6.244a.434.434 0 0 1-.442.42ZM36.264 7.214c0 .88.023 1.614-.422 2.396-.359.635-.931 1.026-1.563 1.026-.867 0-1.376-.66-1.376-1.636 0-1.926 1.725-2.276 3.361-2.276v.49Zm2.278 5.507a.471.471 0 0 1-.534.054c-.75-.623-.886-.912-1.296-1.507-1.239 1.265-2.119 1.643-3.723 1.643-1.902 0-3.38-1.172-3.38-3.52 0-1.834.991-3.083 2.408-3.693 1.226-.54 2.939-.636 4.247-.785V4.62c0-.538.042-1.173-.276-1.637-.273-.416-.8-.588-1.268-.588-.86 0-1.626.442-1.813 1.357-.038.203-.188.404-.394.413l-2.189-.235c-.184-.041-.39-.19-.337-.474C30.49.801 32.891 0 35.038 0c1.1 0 2.535.292 3.402 1.125 1.1 1.026.995 2.396.995 3.886v3.521c0 1.059.438 1.523.85 2.095.144.203.176.448-.009.6-.46.385-1.28 1.1-1.73 1.5l-.004-.006ZM6.655 7.214c0 .88.022 1.614-.423 2.396-.358.635-.927 1.026-1.562 1.026-.868 0-1.373-.66-1.373-1.636 0-1.926 1.725-2.276 3.358-2.276v.49Zm2.278 5.507a.472.472 0 0 1-.534.054c-.75-.623-.883-.912-1.296-1.507-1.239 1.265-2.116 1.643-3.723 1.643-1.9 0-3.38-1.172-3.38-3.52 0-1.834.994-3.083 2.408-3.693 1.226-.54 2.938-.636 4.247-.785V4.62c0-.538.041-1.173-.273-1.637-.277-.416-.804-.588-1.268-.588-.86 0-1.63.442-1.817 1.357-.038.203-.187.404-.39.413L.715 3.931C.53 3.89.327 3.741.378 3.457.883.801 3.281 0 5.428 0c1.1 0 2.536.292 3.403 1.125 1.1 1.026.994 2.396.994 3.886v3.521c0 1.059.439 1.523.852 2.095.146.203.177.448-.007.6-.46.385-1.28 1.1-1.731 1.5l-.006-.006Z"/></g></svg>